<?xml version="1.0" standalone="no"?>
<!DOCTYPE svg PUBLIC "-//W3C//DTD SVG 20010904//EN"
 "http://www.w3.org/TR/2001/REC-SVG-20010904/DTD/svg10.dtd">
<svg version="1.0" xmlns="http://www.w3.org/2000/svg"
 width="717.000000pt" height="650.000000pt" viewBox="0 0 717.000000 650.000000"
 preserveAspectRatio="xMidYMid meet">

<g transform="translate(0.000000,650.000000) scale(0.100000,-0.100000)"
fill="#000000" stroke="none">
<path d="M2687 5794 c-4 -4 -4 -10 -1 -15 6 -10 34 0 34 12 0 10 -24 12 -33 3z"/>
<path d="M2567 5754 c-8 -8 1 -24 14 -24 5 0 9 7 9 15 0 15 -12 20 -23 9z"/>
<path d="M2760 5750 c0 -5 7 -10 16 -10 8 0 12 5 9 10 -3 6 -10 10 -16 10 -5
0 -9 -4 -9 -10z"/>
<path d="M2400 5700 c0 -5 5 -10 11 -10 5 0 7 5 4 10 -3 6 -8 10 -11 10 -2 0
-4 -4 -4 -10z"/>
<path d="M4175 5699 c-10 -15 3 -25 16 -12 7 7 7 13 1 17 -6 3 -14 1 -17 -5z"/>
<path d="M2670 5585 c0 -8 -9 -15 -20 -15 -13 0 -20 -7 -20 -20 0 -30 33 -25
48 7 15 33 15 43 2 43 -5 0 -10 -7 -10 -15z"/>
<path d="M2501 5487 c-8 -11 -6 -18 9 -32 20 -18 20 -17 20 13 0 34 -10 41
-29 19z"/>
<path d="M4920 5430 c0 -5 5 -10 11 -10 5 0 7 5 4 10 -3 6 -8 10 -11 10 -2 0
-4 -4 -4 -10z"/>
<path d="M2806 5285 c-9 -25 28 -38 48 -16 23 25 20 31 -13 31 -16 0 -31 -6
-35 -15z"/>
<path d="M2633 5276 c-26 -12 -30 -26 -9 -26 25 0 46 12 46 26 0 16 -6 16 -37
0z"/>
<path d="M2039 5190 c-25 -14 -31 -55 -15 -95 14 -33 91 -92 184 -139 46 -24
152 -31 175 -12 59 47 -69 196 -205 240 -51 16 -116 19 -139 6z"/>
<path d="M4126 5102 c-3 -6 5 -28 18 -49 56 -86 77 -114 89 -117 6 -2 55 -14
108 -26 57 -12 112 -32 133 -47 38 -25 66 -25 66 1 0 43 -156 168 -260 209
-77 31 -145 43 -154 29z"/>
<path d="M2875 5060 c-3 -5 -2 -10 4 -10 5 0 13 5 16 10 3 6 2 10 -4 10 -5 0
-13 -4 -16 -10z"/>
<path d="M2845 4990 c3 -5 8 -10 11 -10 2 0 4 5 4 10 0 6 -5 10 -11 10 -5 0
-7 -4 -4 -10z"/>
<path d="M4817 4964 c-8 -8 1 -24 14 -24 5 0 9 7 9 15 0 15 -12 20 -23 9z"/>
<path d="M2533 4926 c5 -14 87 -18 102 -6 9 7 21 7 40 0 31 -12 48 -4 25 11
-19 12 -171 7 -167 -5z"/>
<path d="M2723 4927 c-7 -12 24 -37 46 -37 27 0 91 20 91 29 0 15 -13 20 -35
11 -12 -5 -39 -5 -59 0 -23 5 -38 4 -43 -3z"/>
<path d="M4780 4930 c0 -5 5 -10 10 -10 6 0 10 5 10 10 0 6 -4 10 -10 10 -5 0
-10 -4 -10 -10z"/>
<path d="M4695 4900 c-3 -5 -2 -10 4 -10 5 0 13 5 16 10 3 6 2 10 -4 10 -5 0
-13 -4 -16 -10z"/>
<path d="M4850 4540 c0 -5 5 -10 11 -10 5 0 7 5 4 10 -3 6 -8 10 -11 10 -2 0
-4 -4 -4 -10z"/>
<path d="M3690 4281 c0 -18 18 -21 30 -6 10 13 9 15 -9 15 -11 0 -21 -4 -21
-9z"/>
<path d="M4070 4280 c0 -5 5 -10 11 -10 5 0 7 5 4 10 -3 6 -8 10 -11 10 -2 0
-4 -4 -4 -10z"/>
<path d="M6226 3974 c-4 -11 -1 -14 11 -12 9 2 18 9 21 16 6 18 -25 15 -32 -4z"/>
<path d="M6123 3923 c-22 -8 -14 -23 13 -23 15 0 24 5 22 12 -5 14 -18 18 -35
11z"/>
<path d="M6150 3825 c0 -8 4 -15 10 -15 5 0 7 7 4 15 -4 8 -8 15 -10 15 -2 0
-4 -7 -4 -15z"/>
<path d="M4100 3615 c0 -8 2 -15 4 -15 2 0 6 7 10 15 3 8 1 15 -4 15 -6 0 -10
-7 -10 -15z"/>
<path d="M3048 3572 c-34 -22 -56 -43 -55 -52 1 -10 44 -29 117 -54 98 -33
128 -39 205 -39 98 -1 175 22 175 52 0 20 -70 64 -136 85 -45 15 -214 47 -239
45 -5 0 -36 -17 -67 -37z"/>
<path d="M4050 3590 c0 -5 -7 -10 -15 -10 -8 0 -15 -4 -15 -10 0 -13 6 -13 40
5 35 18 38 25 10 25 -11 0 -20 -4 -20 -10z"/>
<path d="M3910 3530 c0 -5 7 -10 15 -10 8 0 15 5 15 10 0 6 -7 10 -15 10 -8 0
-15 -4 -15 -10z"/>
<path d="M5460 3536 c0 -2 7 -6 15 -10 8 -3 15 -1 15 4 0 6 -7 10 -15 10 -8 0
-15 -2 -15 -4z"/>
<path d="M2030 3523 c-16 -7 -22 -11 -69 -51 -22 -18 -30 -31 -23 -36 6 -4 28
9 49 27 21 19 47 36 57 38 11 2 19 8 19 14 -2 12 -14 15 -33 8z"/>
<path d="M1263 3466 c4 -10 7 -28 7 -41 0 -34 54 -92 112 -121 37 -19 62 -24
100 -22 28 2 53 8 55 14 2 6 -19 37 -47 67 -53 58 -124 99 -194 113 -35 6 -38
5 -33 -10z"/>
<path d="M5630 3465 c0 -7 -8 -18 -17 -23 -15 -9 -15 -13 9 -44 31 -40 108
-71 155 -62 44 9 96 -2 123 -26 13 -11 31 -20 40 -20 28 0 124 31 139 45 20
20 -19 70 -61 79 -17 3 -40 13 -49 22 -10 9 -55 23 -101 31 -69 12 -92 12
-136 2 -42 -10 -58 -10 -73 -1 -24 16 -29 15 -29 -3z"/>
<path d="M1900 3405 c-7 -8 -17 -15 -23 -15 -9 0 -57 -46 -57 -56 0 -19 97 50
108 78 6 14 -15 9 -28 -7z"/>
<path d="M1767 3313 c-12 -12 -7 -22 8 -17 8 4 15 10 15 15 0 11 -14 12 -23 2z"/>
<path d="M1695 3290 c3 -5 15 -10 26 -10 11 0 17 5 14 10 -3 6 -15 10 -26 10
-11 0 -17 -4 -14 -10z"/>
<path d="M5065 2700 c-8 -13 5 -13 25 0 13 8 13 10 -2 10 -9 0 -20 -4 -23 -10z"/>
<path d="M4682 2688 c-13 -13 -17 -48 -4 -48 4 0 16 7 27 15 17 14 17 17 4 30
-12 12 -17 13 -27 3z"/>
<path d="M2705 2679 c-4 -6 -5 -13 -2 -16 7 -7 27 6 27 18 0 12 -17 12 -25 -2z"/>
<path d="M5120 2640 c0 -5 5 -10 11 -10 5 0 7 5 4 10 -3 6 -8 10 -11 10 -2 0
-4 -4 -4 -10z"/>
<path d="M5002 2591 l-24 -6 21 -19 c12 -11 22 -17 24 -15 31 53 30 55 -21 40z"/>
<path d="M4665 2580 c-7 -11 2 -30 13 -30 4 0 13 9 20 20 11 17 10 20 -7 20
-11 0 -23 -4 -26 -10z"/>
<path d="M5376 2565 c-11 -30 -6 -40 11 -22 12 12 14 20 6 28 -7 7 -12 6 -17
-6z"/>
<path d="M4460 2561 c0 -6 5 -13 10 -16 6 -3 10 1 10 9 0 9 -4 16 -10 16 -5 0
-10 -4 -10 -9z"/>
<path d="M4306 2525 c-20 -20 -21 -36 -2 -29 15 6 30 34 22 41 -2 2 -11 -3
-20 -12z"/>
<path d="M4650 2519 c0 -5 5 -7 10 -4 6 3 10 8 10 11 0 2 -4 4 -10 4 -5 0 -10
-5 -10 -11z"/>
<path d="M4735 2500 c-8 -26 -3 -33 19 -24 19 7 18 35 -1 41 -6 2 -14 -5 -18
-17z"/>
<path d="M4272 2464 c1 -9 9 -19 16 -22 9 -3 13 2 10 14 -1 9 -9 19 -16 22 -9
3 -13 -2 -10 -14z"/>
<path d="M4512 2468 c5 -15 28 -18 29 -3 0 6 -7 12 -17 13 -10 3 -15 -1 -12
-10z"/>
<path d="M5205 2470 c3 -5 8 -10 11 -10 2 0 4 5 4 10 0 6 -5 10 -11 10 -5 0
-7 -4 -4 -10z"/>
<path d="M5260 2456 c0 -9 7 -16 16 -16 17 0 14 22 -4 28 -7 2 -12 -3 -12 -12z"/>
<path d="M5015 2441 c-3 -5 2 -11 10 -15 8 -3 17 -1 20 3 3 5 -2 11 -10 15 -8
3 -17 1 -20 -3z"/>
<path d="M5060 2430 c0 -5 5 -10 11 -10 5 0 7 5 4 10 -3 6 -8 10 -11 10 -2 0
-4 -4 -4 -10z"/>
<path d="M5152 2388 c2 -6 14 -15 26 -19 20 -8 21 -6 12 11 -11 21 -44 28 -38
8z"/>
<path d="M4350 2360 c0 -11 5 -20 10 -20 6 0 10 9 10 20 0 11 -4 20 -10 20 -5
0 -10 -9 -10 -20z"/>
<path d="M5050 2342 c0 -5 9 -17 19 -26 11 -10 17 -23 15 -30 -7 -19 24 -42
37 -29 18 18 0 73 -28 84 -30 11 -43 12 -43 1z"/>
<path d="M5170 2282 c0 -9 64 -42 81 -42 17 0 0 18 -33 34 -35 18 -48 20 -48
8z"/>
<path d="M5337 2255 c-11 -15 -28 -25 -42 -25 -14 0 -25 -4 -25 -8 0 -19 13
-20 44 -4 38 19 75 62 54 62 -7 0 -21 -12 -31 -25z"/>
<path d="M4990 2232 c0 -12 19 -26 26 -19 2 2 -2 10 -11 17 -9 8 -15 8 -15 2z"/>
<path d="M5190 2215 c-7 -8 -9 -15 -4 -16 5 0 -9 -6 -30 -12 -22 -7 -41 -18
-44 -25 -5 -15 24 -16 33 -2 5 8 11 7 21 -1 12 -10 20 -8 41 13 16 16 23 32
20 42 -8 20 -21 20 -37 1z"/>
<path d="M4420 2175 c0 -8 5 -15 10 -15 6 0 10 7 10 15 0 8 -4 15 -10 15 -5 0
-10 -7 -10 -15z"/>
<path d="M5252 2171 c-12 -10 -22 -26 -22 -35 0 -9 -4 -16 -10 -16 -5 0 -10
-7 -10 -15 0 -8 -6 -15 -14 -15 -12 0 -12 -5 -3 -30 13 -33 37 -41 37 -11 0
11 6 32 14 48 14 29 36 93 32 93 -2 0 -13 -8 -24 -19z"/>
<path d="M4992 2154 c10 -10 20 -15 24 -12 3 4 -5 12 -18 18 -22 12 -22 12 -6
-6z"/>
<path d="M4595 2090 c3 -5 8 -10 11 -10 2 0 4 5 4 10 0 6 -5 10 -11 10 -5 0
-7 -4 -4 -10z"/>
<path d="M4740 2087 c0 -9 12 -14 31 -15 25 -1 28 2 18 14 -15 18 -49 18 -49
1z"/>
<path d="M4940 2062 c0 -5 7 -13 16 -16 10 -4 14 -1 12 6 -5 15 -28 23 -28 10z"/>
<path d="M2245 2046 c-74 -21 -105 -34 -105 -45 0 -15 57 -29 140 -36 41 -4
92 -13 113 -21 38 -14 143 -17 186 -5 l25 7 -37 40 c-23 26 -52 45 -79 53 -65
20 -185 23 -243 7z"/>
<path d="M2935 2039 c-11 -17 1 -21 15 -4 8 9 8 15 2 15 -6 0 -14 -5 -17 -11z"/>
<path d="M4628 2031 c-39 -4 -64 -13 -79 -27 l-21 -22 33 -11 c19 -6 50 -26
70 -44 51 -45 112 -77 149 -77 18 0 43 -9 57 -20 29 -23 77 -26 152 -8 37 8
51 16 51 29 0 21 37 32 62 18 23 -12 45 -2 29 14 -6 6 -31 9 -57 9 -39 -2 -51
2 -77 28 -17 16 -36 30 -42 30 -5 0 -27 9 -48 20 -20 11 -47 20 -60 20 -13 0
-28 5 -34 11 -6 6 -29 15 -50 19 -21 5 -47 10 -58 13 -11 2 -46 2 -77 -2z"/>
<path d="M5190 2006 c0 -9 -4 -16 -10 -16 -14 0 -12 -23 4 -45 12 -17 14 -15
18 24 2 23 0 45 -4 47 -4 3 -8 -2 -8 -10z"/>
<path d="M5150 1910 c0 -5 5 -10 10 -10 6 0 10 5 10 10 0 6 -4 10 -10 10 -5 0
-10 -4 -10 -10z"/>
</g>
</svg>
